<mxfile host="Electron" agent="Mozilla/5.0 (Windows NT 10.0; Win64; x64) AppleWebKit/537.36 (KHTML, like Gecko) draw.io/24.7.17 Chrome/128.0.6613.36 Electron/32.0.1 Safari/537.36" version="24.7.17">
  <diagram name="Page-1" id="p3_qX1tuQRv4mlWR0_fQ">
    <mxGraphModel dx="954" dy="656" grid="1" gridSize="10" guides="1" tooltips="1" connect="1" arrows="1" fold="1" page="1" pageScale="1" pageWidth="850" pageHeight="1100" math="0" shadow="0">
      <root>
        <mxCell id="0" />
        <mxCell id="1" parent="0" />
        <mxCell id="syA2_hkcK1VpC3jO_S1U-2" value="" style="swimlane;startSize=0;fillColor=#f8cecc;strokeColor=#b85450;" parent="1" vertex="1">
          <mxGeometry x="40" y="360" width="200" height="160" as="geometry" />
        </mxCell>
        <mxCell id="syA2_hkcK1VpC3jO_S1U-3" value="" style="rounded=0;whiteSpace=wrap;html=1;fillColor=#f8cecc;strokeColor=#b85450;" parent="syA2_hkcK1VpC3jO_S1U-2" vertex="1">
          <mxGeometry y="50" width="200" height="60" as="geometry" />
        </mxCell>
        <mxCell id="syA2_hkcK1VpC3jO_S1U-4" value="0" style="rounded=0;whiteSpace=wrap;html=1;fillColor=#f8cecc;strokeColor=#b85450;" parent="syA2_hkcK1VpC3jO_S1U-2" vertex="1">
          <mxGeometry y="110" width="70" height="50" as="geometry" />
        </mxCell>
        <mxCell id="syA2_hkcK1VpC3jO_S1U-5" value="0" style="rounded=0;whiteSpace=wrap;html=1;fillColor=#f8cecc;strokeColor=#b85450;" parent="syA2_hkcK1VpC3jO_S1U-2" vertex="1">
          <mxGeometry x="70" y="110" width="60" height="50" as="geometry" />
        </mxCell>
        <mxCell id="syA2_hkcK1VpC3jO_S1U-6" value="5" style="rounded=0;whiteSpace=wrap;html=1;fillColor=#f8cecc;strokeColor=#b85450;" parent="syA2_hkcK1VpC3jO_S1U-2" vertex="1">
          <mxGeometry x="130" y="110" width="70" height="50" as="geometry" />
        </mxCell>
        <mxCell id="syA2_hkcK1VpC3jO_S1U-7" value="0" style="rounded=0;whiteSpace=wrap;html=1;fillColor=#f8cecc;strokeColor=#b85450;" parent="syA2_hkcK1VpC3jO_S1U-2" vertex="1">
          <mxGeometry width="70" height="50" as="geometry" />
        </mxCell>
        <mxCell id="syA2_hkcK1VpC3jO_S1U-8" value="" style="rounded=0;whiteSpace=wrap;html=1;fillColor=#f8cecc;strokeColor=#b85450;" parent="syA2_hkcK1VpC3jO_S1U-2" vertex="1">
          <mxGeometry x="70" width="60" height="50" as="geometry" />
        </mxCell>
        <mxCell id="syA2_hkcK1VpC3jO_S1U-9" value="5" style="rounded=0;whiteSpace=wrap;html=1;fillColor=#f8cecc;strokeColor=#b85450;" parent="syA2_hkcK1VpC3jO_S1U-2" vertex="1">
          <mxGeometry x="130" width="70" height="50" as="geometry" />
        </mxCell>
        <mxCell id="syA2_hkcK1VpC3jO_S1U-10" value="1" style="text;html=1;align=center;verticalAlign=middle;whiteSpace=wrap;rounded=0;fillColor=#f8cecc;strokeColor=#b85450;" parent="syA2_hkcK1VpC3jO_S1U-2" vertex="1">
          <mxGeometry x="70" y="65" width="60" height="30" as="geometry" />
        </mxCell>
        <mxCell id="syA2_hkcK1VpC3jO_S1U-12" value="5" style="text;html=1;align=center;verticalAlign=middle;whiteSpace=wrap;rounded=0;fillColor=#f8cecc;strokeColor=#b85450;" parent="syA2_hkcK1VpC3jO_S1U-2" vertex="1">
          <mxGeometry x="70" y="10" width="60" height="30" as="geometry" />
        </mxCell>
        <mxCell id="aSpZ6OvO1H7LhaN8nrK5-11" value="" style="swimlane;startSize=0;" parent="1" vertex="1">
          <mxGeometry x="320" y="40" width="200" height="160" as="geometry" />
        </mxCell>
        <mxCell id="aSpZ6OvO1H7LhaN8nrK5-12" value="" style="rounded=0;whiteSpace=wrap;html=1;" parent="aSpZ6OvO1H7LhaN8nrK5-11" vertex="1">
          <mxGeometry y="50" width="200" height="60" as="geometry" />
        </mxCell>
        <mxCell id="aSpZ6OvO1H7LhaN8nrK5-13" value="19" style="rounded=0;whiteSpace=wrap;html=1;" parent="aSpZ6OvO1H7LhaN8nrK5-11" vertex="1">
          <mxGeometry y="110" width="70" height="50" as="geometry" />
        </mxCell>
        <mxCell id="aSpZ6OvO1H7LhaN8nrK5-14" value="14" style="rounded=0;whiteSpace=wrap;html=1;" parent="aSpZ6OvO1H7LhaN8nrK5-11" vertex="1">
          <mxGeometry x="70" y="110" width="60" height="50" as="geometry" />
        </mxCell>
        <mxCell id="aSpZ6OvO1H7LhaN8nrK5-15" value="21" style="rounded=0;whiteSpace=wrap;html=1;" parent="aSpZ6OvO1H7LhaN8nrK5-11" vertex="1">
          <mxGeometry x="130" y="110" width="70" height="50" as="geometry" />
        </mxCell>
        <mxCell id="aSpZ6OvO1H7LhaN8nrK5-16" value="5" style="rounded=0;whiteSpace=wrap;html=1;" parent="aSpZ6OvO1H7LhaN8nrK5-11" vertex="1">
          <mxGeometry width="70" height="50" as="geometry" />
        </mxCell>
        <mxCell id="aSpZ6OvO1H7LhaN8nrK5-17" value="" style="rounded=0;whiteSpace=wrap;html=1;" parent="aSpZ6OvO1H7LhaN8nrK5-11" vertex="1">
          <mxGeometry x="70" width="60" height="50" as="geometry" />
        </mxCell>
        <mxCell id="aSpZ6OvO1H7LhaN8nrK5-18" value="7" style="rounded=0;whiteSpace=wrap;html=1;" parent="aSpZ6OvO1H7LhaN8nrK5-11" vertex="1">
          <mxGeometry x="130" width="70" height="50" as="geometry" />
        </mxCell>
        <mxCell id="aSpZ6OvO1H7LhaN8nrK5-19" value="2" style="text;html=1;align=center;verticalAlign=middle;whiteSpace=wrap;rounded=0;" parent="aSpZ6OvO1H7LhaN8nrK5-11" vertex="1">
          <mxGeometry x="70" y="65" width="60" height="30" as="geometry" />
        </mxCell>
        <mxCell id="aSpZ6OvO1H7LhaN8nrK5-20" value="2" style="text;html=1;align=center;verticalAlign=middle;whiteSpace=wrap;rounded=0;" parent="aSpZ6OvO1H7LhaN8nrK5-11" vertex="1">
          <mxGeometry x="70" y="10" width="60" height="30" as="geometry" />
        </mxCell>
        <mxCell id="aSpZ6OvO1H7LhaN8nrK5-21" value="" style="swimlane;startSize=0;" parent="1" vertex="1">
          <mxGeometry x="320" y="240" width="200" height="160" as="geometry" />
        </mxCell>
        <mxCell id="aSpZ6OvO1H7LhaN8nrK5-22" value="" style="rounded=0;whiteSpace=wrap;html=1;" parent="aSpZ6OvO1H7LhaN8nrK5-21" vertex="1">
          <mxGeometry y="50" width="200" height="60" as="geometry" />
        </mxCell>
        <mxCell id="aSpZ6OvO1H7LhaN8nrK5-23" value="19" style="rounded=0;whiteSpace=wrap;html=1;" parent="aSpZ6OvO1H7LhaN8nrK5-21" vertex="1">
          <mxGeometry y="110" width="70" height="50" as="geometry" />
        </mxCell>
        <mxCell id="aSpZ6OvO1H7LhaN8nrK5-24" value="14" style="rounded=0;whiteSpace=wrap;html=1;" parent="aSpZ6OvO1H7LhaN8nrK5-21" vertex="1">
          <mxGeometry x="70" y="110" width="60" height="50" as="geometry" />
        </mxCell>
        <mxCell id="aSpZ6OvO1H7LhaN8nrK5-25" value="21" style="rounded=0;whiteSpace=wrap;html=1;" parent="aSpZ6OvO1H7LhaN8nrK5-21" vertex="1">
          <mxGeometry x="130" y="110" width="70" height="50" as="geometry" />
        </mxCell>
        <mxCell id="aSpZ6OvO1H7LhaN8nrK5-26" value="5" style="rounded=0;whiteSpace=wrap;html=1;" parent="aSpZ6OvO1H7LhaN8nrK5-21" vertex="1">
          <mxGeometry width="70" height="50" as="geometry" />
        </mxCell>
        <mxCell id="aSpZ6OvO1H7LhaN8nrK5-27" value="" style="rounded=0;whiteSpace=wrap;html=1;" parent="aSpZ6OvO1H7LhaN8nrK5-21" vertex="1">
          <mxGeometry x="70" width="60" height="50" as="geometry" />
        </mxCell>
        <mxCell id="aSpZ6OvO1H7LhaN8nrK5-28" value="7" style="rounded=0;whiteSpace=wrap;html=1;" parent="aSpZ6OvO1H7LhaN8nrK5-21" vertex="1">
          <mxGeometry x="130" width="70" height="50" as="geometry" />
        </mxCell>
        <mxCell id="aSpZ6OvO1H7LhaN8nrK5-29" value="3" style="text;html=1;align=center;verticalAlign=middle;whiteSpace=wrap;rounded=0;" parent="aSpZ6OvO1H7LhaN8nrK5-21" vertex="1">
          <mxGeometry x="70" y="65" width="60" height="30" as="geometry" />
        </mxCell>
        <mxCell id="aSpZ6OvO1H7LhaN8nrK5-30" value="2" style="text;html=1;align=center;verticalAlign=middle;whiteSpace=wrap;rounded=0;" parent="aSpZ6OvO1H7LhaN8nrK5-21" vertex="1">
          <mxGeometry x="70" y="10" width="60" height="30" as="geometry" />
        </mxCell>
        <mxCell id="aSpZ6OvO1H7LhaN8nrK5-31" value="" style="swimlane;startSize=0;" parent="1" vertex="1">
          <mxGeometry x="320" y="440" width="200" height="160" as="geometry" />
        </mxCell>
        <mxCell id="aSpZ6OvO1H7LhaN8nrK5-32" value="" style="rounded=0;whiteSpace=wrap;html=1;" parent="aSpZ6OvO1H7LhaN8nrK5-31" vertex="1">
          <mxGeometry y="50" width="200" height="60" as="geometry" />
        </mxCell>
        <mxCell id="aSpZ6OvO1H7LhaN8nrK5-33" value="14" style="rounded=0;whiteSpace=wrap;html=1;" parent="aSpZ6OvO1H7LhaN8nrK5-31" vertex="1">
          <mxGeometry y="110" width="70" height="50" as="geometry" />
        </mxCell>
        <mxCell id="aSpZ6OvO1H7LhaN8nrK5-34" value="9" style="rounded=0;whiteSpace=wrap;html=1;" parent="aSpZ6OvO1H7LhaN8nrK5-31" vertex="1">
          <mxGeometry x="70" y="110" width="60" height="50" as="geometry" />
        </mxCell>
        <mxCell id="aSpZ6OvO1H7LhaN8nrK5-35" value="20" style="rounded=0;whiteSpace=wrap;html=1;" parent="aSpZ6OvO1H7LhaN8nrK5-31" vertex="1">
          <mxGeometry x="130" y="110" width="70" height="50" as="geometry" />
        </mxCell>
        <mxCell id="aSpZ6OvO1H7LhaN8nrK5-36" value="5" style="rounded=0;whiteSpace=wrap;html=1;" parent="aSpZ6OvO1H7LhaN8nrK5-31" vertex="1">
          <mxGeometry width="70" height="50" as="geometry" />
        </mxCell>
        <mxCell id="aSpZ6OvO1H7LhaN8nrK5-37" value="" style="rounded=0;whiteSpace=wrap;html=1;" parent="aSpZ6OvO1H7LhaN8nrK5-31" vertex="1">
          <mxGeometry x="70" width="60" height="50" as="geometry" />
        </mxCell>
        <mxCell id="aSpZ6OvO1H7LhaN8nrK5-38" value="11" style="rounded=0;whiteSpace=wrap;html=1;" parent="aSpZ6OvO1H7LhaN8nrK5-31" vertex="1">
          <mxGeometry x="130" width="70" height="50" as="geometry" />
        </mxCell>
        <mxCell id="aSpZ6OvO1H7LhaN8nrK5-39" value="4" style="text;html=1;align=center;verticalAlign=middle;whiteSpace=wrap;rounded=0;" parent="aSpZ6OvO1H7LhaN8nrK5-31" vertex="1">
          <mxGeometry x="70" y="65" width="60" height="30" as="geometry" />
        </mxCell>
        <mxCell id="aSpZ6OvO1H7LhaN8nrK5-40" value="6" style="text;html=1;align=center;verticalAlign=middle;whiteSpace=wrap;rounded=0;" parent="aSpZ6OvO1H7LhaN8nrK5-31" vertex="1">
          <mxGeometry x="70" y="10" width="60" height="30" as="geometry" />
        </mxCell>
        <mxCell id="aSpZ6OvO1H7LhaN8nrK5-41" value="" style="swimlane;startSize=0;fillColor=#f8cecc;strokeColor=#b85450;" parent="1" vertex="1">
          <mxGeometry x="320" y="640" width="200" height="160" as="geometry" />
        </mxCell>
        <mxCell id="aSpZ6OvO1H7LhaN8nrK5-42" value="" style="rounded=0;whiteSpace=wrap;html=1;fillColor=#f8cecc;strokeColor=#b85450;" parent="aSpZ6OvO1H7LhaN8nrK5-41" vertex="1">
          <mxGeometry y="50" width="200" height="60" as="geometry" />
        </mxCell>
        <mxCell id="aSpZ6OvO1H7LhaN8nrK5-43" value="5" style="rounded=0;whiteSpace=wrap;html=1;fillColor=#f8cecc;strokeColor=#b85450;" parent="aSpZ6OvO1H7LhaN8nrK5-41" vertex="1">
          <mxGeometry y="110" width="70" height="50" as="geometry" />
        </mxCell>
        <mxCell id="aSpZ6OvO1H7LhaN8nrK5-44" value="0" style="rounded=0;whiteSpace=wrap;html=1;fillColor=#f8cecc;strokeColor=#b85450;" parent="aSpZ6OvO1H7LhaN8nrK5-41" vertex="1">
          <mxGeometry x="70" y="110" width="60" height="50" as="geometry" />
        </mxCell>
        <mxCell id="aSpZ6OvO1H7LhaN8nrK5-45" value="15" style="rounded=0;whiteSpace=wrap;html=1;fillColor=#f8cecc;strokeColor=#b85450;" parent="aSpZ6OvO1H7LhaN8nrK5-41" vertex="1">
          <mxGeometry x="130" y="110" width="70" height="50" as="geometry" />
        </mxCell>
        <mxCell id="aSpZ6OvO1H7LhaN8nrK5-46" value="5" style="rounded=0;whiteSpace=wrap;html=1;fillColor=#f8cecc;strokeColor=#b85450;" parent="aSpZ6OvO1H7LhaN8nrK5-41" vertex="1">
          <mxGeometry width="70" height="50" as="geometry" />
        </mxCell>
        <mxCell id="aSpZ6OvO1H7LhaN8nrK5-47" value="" style="rounded=0;whiteSpace=wrap;html=1;fillColor=#f8cecc;strokeColor=#b85450;" parent="aSpZ6OvO1H7LhaN8nrK5-41" vertex="1">
          <mxGeometry x="70" width="60" height="50" as="geometry" />
        </mxCell>
        <mxCell id="aSpZ6OvO1H7LhaN8nrK5-48" value="15" style="rounded=0;whiteSpace=wrap;html=1;fillColor=#f8cecc;strokeColor=#b85450;" parent="aSpZ6OvO1H7LhaN8nrK5-41" vertex="1">
          <mxGeometry x="130" width="70" height="50" as="geometry" />
        </mxCell>
        <mxCell id="aSpZ6OvO1H7LhaN8nrK5-49" value="5" style="text;html=1;align=center;verticalAlign=middle;whiteSpace=wrap;rounded=0;fillColor=#f8cecc;strokeColor=#b85450;" parent="aSpZ6OvO1H7LhaN8nrK5-41" vertex="1">
          <mxGeometry x="70" y="65" width="60" height="30" as="geometry" />
        </mxCell>
        <mxCell id="aSpZ6OvO1H7LhaN8nrK5-50" value="10" style="text;html=1;align=center;verticalAlign=middle;whiteSpace=wrap;rounded=0;fillColor=#f8cecc;strokeColor=#b85450;" parent="aSpZ6OvO1H7LhaN8nrK5-41" vertex="1">
          <mxGeometry x="70" y="10" width="60" height="30" as="geometry" />
        </mxCell>
        <mxCell id="aSpZ6OvO1H7LhaN8nrK5-51" value="" style="swimlane;startSize=0;" parent="1" vertex="1">
          <mxGeometry x="40" y="920" width="200" height="160" as="geometry" />
        </mxCell>
        <mxCell id="aSpZ6OvO1H7LhaN8nrK5-52" value="" style="rounded=0;whiteSpace=wrap;html=1;" parent="aSpZ6OvO1H7LhaN8nrK5-51" vertex="1">
          <mxGeometry y="50" width="200" height="60" as="geometry" />
        </mxCell>
        <mxCell id="aSpZ6OvO1H7LhaN8nrK5-53" value="12" style="rounded=0;whiteSpace=wrap;html=1;" parent="aSpZ6OvO1H7LhaN8nrK5-51" vertex="1">
          <mxGeometry y="110" width="70" height="50" as="geometry" />
        </mxCell>
        <mxCell id="aSpZ6OvO1H7LhaN8nrK5-54" value="12" style="rounded=0;whiteSpace=wrap;html=1;" parent="aSpZ6OvO1H7LhaN8nrK5-51" vertex="1">
          <mxGeometry x="70" y="110" width="60" height="50" as="geometry" />
        </mxCell>
        <mxCell id="aSpZ6OvO1H7LhaN8nrK5-55" value="20" style="rounded=0;whiteSpace=wrap;html=1;" parent="aSpZ6OvO1H7LhaN8nrK5-51" vertex="1">
          <mxGeometry x="130" y="110" width="70" height="50" as="geometry" />
        </mxCell>
        <mxCell id="aSpZ6OvO1H7LhaN8nrK5-56" value="0" style="rounded=0;whiteSpace=wrap;html=1;" parent="aSpZ6OvO1H7LhaN8nrK5-51" vertex="1">
          <mxGeometry width="70" height="50" as="geometry" />
        </mxCell>
        <mxCell id="aSpZ6OvO1H7LhaN8nrK5-57" value="" style="rounded=0;whiteSpace=wrap;html=1;" parent="aSpZ6OvO1H7LhaN8nrK5-51" vertex="1">
          <mxGeometry x="70" width="60" height="50" as="geometry" />
        </mxCell>
        <mxCell id="aSpZ6OvO1H7LhaN8nrK5-58" value="8" style="rounded=0;whiteSpace=wrap;html=1;" parent="aSpZ6OvO1H7LhaN8nrK5-51" vertex="1">
          <mxGeometry x="130" width="70" height="50" as="geometry" />
        </mxCell>
        <mxCell id="aSpZ6OvO1H7LhaN8nrK5-59" value="6" style="text;html=1;align=center;verticalAlign=middle;whiteSpace=wrap;rounded=0;" parent="aSpZ6OvO1H7LhaN8nrK5-51" vertex="1">
          <mxGeometry x="70" y="65" width="60" height="30" as="geometry" />
        </mxCell>
        <mxCell id="aSpZ6OvO1H7LhaN8nrK5-60" value="8" style="text;html=1;align=center;verticalAlign=middle;whiteSpace=wrap;rounded=0;" parent="aSpZ6OvO1H7LhaN8nrK5-51" vertex="1">
          <mxGeometry x="70" y="10" width="60" height="30" as="geometry" />
        </mxCell>
        <mxCell id="aSpZ6OvO1H7LhaN8nrK5-61" value="" style="swimlane;startSize=0;" parent="1" vertex="1">
          <mxGeometry x="680" y="920" width="200" height="160" as="geometry" />
        </mxCell>
        <mxCell id="aSpZ6OvO1H7LhaN8nrK5-62" value="" style="rounded=0;whiteSpace=wrap;html=1;" parent="aSpZ6OvO1H7LhaN8nrK5-61" vertex="1">
          <mxGeometry y="50" width="200" height="60" as="geometry" />
        </mxCell>
        <mxCell id="aSpZ6OvO1H7LhaN8nrK5-63" value="20" style="rounded=0;whiteSpace=wrap;html=1;" parent="aSpZ6OvO1H7LhaN8nrK5-61" vertex="1">
          <mxGeometry y="110" width="70" height="50" as="geometry" />
        </mxCell>
        <mxCell id="aSpZ6OvO1H7LhaN8nrK5-64" value="9" style="rounded=0;whiteSpace=wrap;html=1;" parent="aSpZ6OvO1H7LhaN8nrK5-61" vertex="1">
          <mxGeometry x="70" y="110" width="60" height="50" as="geometry" />
        </mxCell>
        <mxCell id="aSpZ6OvO1H7LhaN8nrK5-65" value="25" style="rounded=0;whiteSpace=wrap;html=1;" parent="aSpZ6OvO1H7LhaN8nrK5-61" vertex="1">
          <mxGeometry x="130" y="110" width="70" height="50" as="geometry" />
        </mxCell>
        <mxCell id="aSpZ6OvO1H7LhaN8nrK5-66" value="11" style="rounded=0;whiteSpace=wrap;html=1;" parent="aSpZ6OvO1H7LhaN8nrK5-61" vertex="1">
          <mxGeometry width="70" height="50" as="geometry" />
        </mxCell>
        <mxCell id="aSpZ6OvO1H7LhaN8nrK5-67" value="" style="rounded=0;whiteSpace=wrap;html=1;" parent="aSpZ6OvO1H7LhaN8nrK5-61" vertex="1">
          <mxGeometry x="70" width="60" height="50" as="geometry" />
        </mxCell>
        <mxCell id="aSpZ6OvO1H7LhaN8nrK5-68" value="16" style="rounded=0;whiteSpace=wrap;html=1;" parent="aSpZ6OvO1H7LhaN8nrK5-61" vertex="1">
          <mxGeometry x="130" width="70" height="50" as="geometry" />
        </mxCell>
        <mxCell id="aSpZ6OvO1H7LhaN8nrK5-69" value="7" style="text;html=1;align=center;verticalAlign=middle;whiteSpace=wrap;rounded=0;" parent="aSpZ6OvO1H7LhaN8nrK5-61" vertex="1">
          <mxGeometry x="70" y="65" width="60" height="30" as="geometry" />
        </mxCell>
        <mxCell id="aSpZ6OvO1H7LhaN8nrK5-70" value="5" style="text;html=1;align=center;verticalAlign=middle;whiteSpace=wrap;rounded=0;" parent="aSpZ6OvO1H7LhaN8nrK5-61" vertex="1">
          <mxGeometry x="70" y="10" width="60" height="30" as="geometry" />
        </mxCell>
        <mxCell id="aSpZ6OvO1H7LhaN8nrK5-71" value="" style="swimlane;startSize=0;fillColor=#f8cecc;strokeColor=#b85450;" parent="1" vertex="1">
          <mxGeometry x="680" y="640" width="200" height="160" as="geometry" />
        </mxCell>
        <mxCell id="aSpZ6OvO1H7LhaN8nrK5-72" value="" style="rounded=0;whiteSpace=wrap;html=1;fillColor=#f8cecc;strokeColor=#b85450;" parent="aSpZ6OvO1H7LhaN8nrK5-71" vertex="1">
          <mxGeometry y="50" width="200" height="60" as="geometry" />
        </mxCell>
        <mxCell id="aSpZ6OvO1H7LhaN8nrK5-73" value="15" style="rounded=0;whiteSpace=wrap;html=1;fillColor=#f8cecc;strokeColor=#b85450;" parent="aSpZ6OvO1H7LhaN8nrK5-71" vertex="1">
          <mxGeometry y="110" width="70" height="50" as="geometry" />
        </mxCell>
        <mxCell id="aSpZ6OvO1H7LhaN8nrK5-74" value="0" style="rounded=0;whiteSpace=wrap;html=1;fillColor=#f8cecc;strokeColor=#b85450;" parent="aSpZ6OvO1H7LhaN8nrK5-71" vertex="1">
          <mxGeometry x="70" y="110" width="60" height="50" as="geometry" />
        </mxCell>
        <mxCell id="aSpZ6OvO1H7LhaN8nrK5-75" value="25" style="rounded=0;whiteSpace=wrap;html=1;fillColor=#f8cecc;strokeColor=#b85450;" parent="aSpZ6OvO1H7LhaN8nrK5-71" vertex="1">
          <mxGeometry x="130" y="110" width="70" height="50" as="geometry" />
        </mxCell>
        <mxCell id="aSpZ6OvO1H7LhaN8nrK5-76" value="15" style="rounded=0;whiteSpace=wrap;html=1;fillColor=#f8cecc;strokeColor=#b85450;" parent="aSpZ6OvO1H7LhaN8nrK5-71" vertex="1">
          <mxGeometry width="70" height="50" as="geometry" />
        </mxCell>
        <mxCell id="aSpZ6OvO1H7LhaN8nrK5-77" value="10" style="rounded=0;whiteSpace=wrap;html=1;fillColor=#f8cecc;strokeColor=#b85450;" parent="aSpZ6OvO1H7LhaN8nrK5-71" vertex="1">
          <mxGeometry x="70" width="60" height="50" as="geometry" />
        </mxCell>
        <mxCell id="aSpZ6OvO1H7LhaN8nrK5-78" value="25" style="rounded=0;whiteSpace=wrap;html=1;fillColor=#f8cecc;strokeColor=#b85450;" parent="aSpZ6OvO1H7LhaN8nrK5-71" vertex="1">
          <mxGeometry x="130" width="70" height="50" as="geometry" />
        </mxCell>
        <mxCell id="aSpZ6OvO1H7LhaN8nrK5-79" value="8" style="text;html=1;align=center;verticalAlign=middle;whiteSpace=wrap;rounded=0;fillColor=#f8cecc;strokeColor=#b85450;" parent="aSpZ6OvO1H7LhaN8nrK5-71" vertex="1">
          <mxGeometry x="70" y="65" width="60" height="30" as="geometry" />
        </mxCell>
        <mxCell id="aSpZ6OvO1H7LhaN8nrK5-81" value="" style="swimlane;startSize=0;" parent="1" vertex="1">
          <mxGeometry x="680" y="440" width="200" height="160" as="geometry" />
        </mxCell>
        <mxCell id="aSpZ6OvO1H7LhaN8nrK5-82" value="" style="rounded=0;whiteSpace=wrap;html=1;" parent="aSpZ6OvO1H7LhaN8nrK5-81" vertex="1">
          <mxGeometry y="50" width="200" height="60" as="geometry" />
        </mxCell>
        <mxCell id="aSpZ6OvO1H7LhaN8nrK5-83" value="21" style="rounded=0;whiteSpace=wrap;html=1;" parent="aSpZ6OvO1H7LhaN8nrK5-81" vertex="1">
          <mxGeometry y="110" width="70" height="50" as="geometry" />
        </mxCell>
        <mxCell id="aSpZ6OvO1H7LhaN8nrK5-84" value="10" style="rounded=0;whiteSpace=wrap;html=1;" parent="aSpZ6OvO1H7LhaN8nrK5-81" vertex="1">
          <mxGeometry x="70" y="110" width="60" height="50" as="geometry" />
        </mxCell>
        <mxCell id="aSpZ6OvO1H7LhaN8nrK5-85" value="25" style="rounded=0;whiteSpace=wrap;html=1;" parent="aSpZ6OvO1H7LhaN8nrK5-81" vertex="1">
          <mxGeometry x="130" y="110" width="70" height="50" as="geometry" />
        </mxCell>
        <mxCell id="aSpZ6OvO1H7LhaN8nrK5-86" value="11" style="rounded=0;whiteSpace=wrap;html=1;" parent="aSpZ6OvO1H7LhaN8nrK5-81" vertex="1">
          <mxGeometry width="70" height="50" as="geometry" />
        </mxCell>
        <mxCell id="aSpZ6OvO1H7LhaN8nrK5-87" value="" style="rounded=0;whiteSpace=wrap;html=1;" parent="aSpZ6OvO1H7LhaN8nrK5-81" vertex="1">
          <mxGeometry x="70" width="60" height="50" as="geometry" />
        </mxCell>
        <mxCell id="aSpZ6OvO1H7LhaN8nrK5-88" value="15" style="rounded=0;whiteSpace=wrap;html=1;" parent="aSpZ6OvO1H7LhaN8nrK5-81" vertex="1">
          <mxGeometry x="130" width="70" height="50" as="geometry" />
        </mxCell>
        <mxCell id="aSpZ6OvO1H7LhaN8nrK5-89" value="9" style="text;html=1;align=center;verticalAlign=middle;whiteSpace=wrap;rounded=0;" parent="aSpZ6OvO1H7LhaN8nrK5-81" vertex="1">
          <mxGeometry x="70" y="65" width="60" height="30" as="geometry" />
        </mxCell>
        <mxCell id="aSpZ6OvO1H7LhaN8nrK5-90" value="4" style="text;html=1;align=center;verticalAlign=middle;whiteSpace=wrap;rounded=0;" parent="aSpZ6OvO1H7LhaN8nrK5-81" vertex="1">
          <mxGeometry x="70" y="10" width="60" height="30" as="geometry" />
        </mxCell>
        <mxCell id="aSpZ6OvO1H7LhaN8nrK5-91" value="" style="swimlane;startSize=0;fillColor=#f8cecc;strokeColor=#b85450;" parent="1" vertex="1">
          <mxGeometry x="960" y="440" width="200" height="160" as="geometry" />
        </mxCell>
        <mxCell id="aSpZ6OvO1H7LhaN8nrK5-92" value="" style="rounded=0;whiteSpace=wrap;html=1;fillColor=#f8cecc;strokeColor=#b85450;" parent="aSpZ6OvO1H7LhaN8nrK5-91" vertex="1">
          <mxGeometry y="50" width="200" height="60" as="geometry" />
        </mxCell>
        <mxCell id="aSpZ6OvO1H7LhaN8nrK5-93" value="25" style="rounded=0;whiteSpace=wrap;html=1;fillColor=#f8cecc;strokeColor=#b85450;" parent="aSpZ6OvO1H7LhaN8nrK5-91" vertex="1">
          <mxGeometry y="110" width="70" height="50" as="geometry" />
        </mxCell>
        <mxCell id="aSpZ6OvO1H7LhaN8nrK5-94" value="0" style="rounded=0;whiteSpace=wrap;html=1;fillColor=#f8cecc;strokeColor=#b85450;" parent="aSpZ6OvO1H7LhaN8nrK5-91" vertex="1">
          <mxGeometry x="70" y="110" width="60" height="50" as="geometry" />
        </mxCell>
        <mxCell id="aSpZ6OvO1H7LhaN8nrK5-95" value="27" style="rounded=0;whiteSpace=wrap;html=1;fillColor=#f8cecc;strokeColor=#b85450;" parent="aSpZ6OvO1H7LhaN8nrK5-91" vertex="1">
          <mxGeometry x="130" y="110" width="70" height="50" as="geometry" />
        </mxCell>
        <mxCell id="aSpZ6OvO1H7LhaN8nrK5-96" value="25" style="rounded=0;whiteSpace=wrap;html=1;fillColor=#f8cecc;strokeColor=#b85450;" parent="aSpZ6OvO1H7LhaN8nrK5-91" vertex="1">
          <mxGeometry width="70" height="50" as="geometry" />
        </mxCell>
        <mxCell id="aSpZ6OvO1H7LhaN8nrK5-97" value="" style="rounded=0;whiteSpace=wrap;html=1;fillColor=#f8cecc;strokeColor=#b85450;" parent="aSpZ6OvO1H7LhaN8nrK5-91" vertex="1">
          <mxGeometry x="70" width="60" height="50" as="geometry" />
        </mxCell>
        <mxCell id="aSpZ6OvO1H7LhaN8nrK5-98" value="27" style="rounded=0;whiteSpace=wrap;html=1;fillColor=#f8cecc;strokeColor=#b85450;" parent="aSpZ6OvO1H7LhaN8nrK5-91" vertex="1">
          <mxGeometry x="130" width="70" height="50" as="geometry" />
        </mxCell>
        <mxCell id="aSpZ6OvO1H7LhaN8nrK5-99" value="10" style="text;html=1;align=center;verticalAlign=middle;whiteSpace=wrap;rounded=0;fillColor=#f8cecc;strokeColor=#b85450;" parent="aSpZ6OvO1H7LhaN8nrK5-91" vertex="1">
          <mxGeometry x="70" y="65" width="60" height="30" as="geometry" />
        </mxCell>
        <mxCell id="aSpZ6OvO1H7LhaN8nrK5-100" value="2" style="text;html=1;align=center;verticalAlign=middle;whiteSpace=wrap;rounded=0;fillColor=#f8cecc;strokeColor=#b85450;" parent="aSpZ6OvO1H7LhaN8nrK5-91" vertex="1">
          <mxGeometry x="70" y="10" width="60" height="30" as="geometry" />
        </mxCell>
        <mxCell id="aSpZ6OvO1H7LhaN8nrK5-101" value="" style="swimlane;startSize=0;fillColor=#f8cecc;strokeColor=#b85450;" parent="1" vertex="1">
          <mxGeometry x="960" y="640" width="200" height="160" as="geometry" />
        </mxCell>
        <mxCell id="aSpZ6OvO1H7LhaN8nrK5-102" value="" style="rounded=0;whiteSpace=wrap;html=1;fillColor=#f8cecc;strokeColor=#b85450;" parent="aSpZ6OvO1H7LhaN8nrK5-101" vertex="1">
          <mxGeometry y="50" width="200" height="60" as="geometry" />
        </mxCell>
        <mxCell id="aSpZ6OvO1H7LhaN8nrK5-103" value="25" style="rounded=0;whiteSpace=wrap;html=1;fillColor=#f8cecc;strokeColor=#b85450;" parent="aSpZ6OvO1H7LhaN8nrK5-101" vertex="1">
          <mxGeometry y="110" width="70" height="50" as="geometry" />
        </mxCell>
        <mxCell id="aSpZ6OvO1H7LhaN8nrK5-104" value="0" style="rounded=0;whiteSpace=wrap;html=1;fillColor=#f8cecc;strokeColor=#b85450;" parent="aSpZ6OvO1H7LhaN8nrK5-101" vertex="1">
          <mxGeometry x="70" y="110" width="60" height="50" as="geometry" />
        </mxCell>
        <mxCell id="aSpZ6OvO1H7LhaN8nrK5-105" value="27" style="rounded=0;whiteSpace=wrap;html=1;fillColor=#f8cecc;strokeColor=#b85450;" parent="aSpZ6OvO1H7LhaN8nrK5-101" vertex="1">
          <mxGeometry x="130" y="110" width="70" height="50" as="geometry" />
        </mxCell>
        <mxCell id="aSpZ6OvO1H7LhaN8nrK5-106" value="25" style="rounded=0;whiteSpace=wrap;html=1;fillColor=#f8cecc;strokeColor=#b85450;" parent="aSpZ6OvO1H7LhaN8nrK5-101" vertex="1">
          <mxGeometry width="70" height="50" as="geometry" />
        </mxCell>
        <mxCell id="aSpZ6OvO1H7LhaN8nrK5-107" value="" style="rounded=0;whiteSpace=wrap;html=1;fillColor=#f8cecc;strokeColor=#b85450;" parent="aSpZ6OvO1H7LhaN8nrK5-101" vertex="1">
          <mxGeometry x="70" width="60" height="50" as="geometry" />
        </mxCell>
        <mxCell id="aSpZ6OvO1H7LhaN8nrK5-108" value="27" style="rounded=0;whiteSpace=wrap;html=1;fillColor=#f8cecc;strokeColor=#b85450;" parent="aSpZ6OvO1H7LhaN8nrK5-101" vertex="1">
          <mxGeometry x="130" width="70" height="50" as="geometry" />
        </mxCell>
        <mxCell id="aSpZ6OvO1H7LhaN8nrK5-109" value="11" style="text;html=1;align=center;verticalAlign=middle;whiteSpace=wrap;rounded=0;fillColor=#f8cecc;strokeColor=#b85450;" parent="aSpZ6OvO1H7LhaN8nrK5-101" vertex="1">
          <mxGeometry x="70" y="65" width="60" height="30" as="geometry" />
        </mxCell>
        <mxCell id="aSpZ6OvO1H7LhaN8nrK5-110" value="2" style="text;html=1;align=center;verticalAlign=middle;whiteSpace=wrap;rounded=0;fillColor=#f8cecc;strokeColor=#b85450;" parent="aSpZ6OvO1H7LhaN8nrK5-101" vertex="1">
          <mxGeometry x="70" y="10" width="60" height="30" as="geometry" />
        </mxCell>
        <mxCell id="aSpZ6OvO1H7LhaN8nrK5-117" value="" style="endArrow=classic;html=1;rounded=0;exitX=1;exitY=0.5;exitDx=0;exitDy=0;entryX=0;entryY=0.5;entryDx=0;entryDy=0;" parent="1" source="syA2_hkcK1VpC3jO_S1U-3" target="aSpZ6OvO1H7LhaN8nrK5-12" edge="1">
          <mxGeometry width="50" height="50" relative="1" as="geometry">
            <mxPoint x="560" y="440" as="sourcePoint" />
            <mxPoint x="610" y="390" as="targetPoint" />
          </mxGeometry>
        </mxCell>
        <mxCell id="aSpZ6OvO1H7LhaN8nrK5-118" value="" style="endArrow=classic;html=1;rounded=0;exitX=1;exitY=0.5;exitDx=0;exitDy=0;entryX=0;entryY=0.5;entryDx=0;entryDy=0;" parent="1" source="syA2_hkcK1VpC3jO_S1U-3" target="aSpZ6OvO1H7LhaN8nrK5-22" edge="1">
          <mxGeometry width="50" height="50" relative="1" as="geometry">
            <mxPoint x="560" y="290" as="sourcePoint" />
            <mxPoint x="610" y="240" as="targetPoint" />
          </mxGeometry>
        </mxCell>
        <mxCell id="aSpZ6OvO1H7LhaN8nrK5-119" value="" style="endArrow=classic;html=1;rounded=0;exitX=1;exitY=0.5;exitDx=0;exitDy=0;entryX=0;entryY=0.5;entryDx=0;entryDy=0;" parent="1" source="syA2_hkcK1VpC3jO_S1U-3" target="aSpZ6OvO1H7LhaN8nrK5-32" edge="1">
          <mxGeometry width="50" height="50" relative="1" as="geometry">
            <mxPoint x="560" y="290" as="sourcePoint" />
            <mxPoint x="610" y="240" as="targetPoint" />
          </mxGeometry>
        </mxCell>
        <mxCell id="aSpZ6OvO1H7LhaN8nrK5-120" value="" style="endArrow=classic;html=1;rounded=0;exitX=1;exitY=0.5;exitDx=0;exitDy=0;entryX=0;entryY=0.5;entryDx=0;entryDy=0;fillColor=#f8cecc;strokeColor=#b85450;" parent="1" source="syA2_hkcK1VpC3jO_S1U-3" target="aSpZ6OvO1H7LhaN8nrK5-42" edge="1">
          <mxGeometry width="50" height="50" relative="1" as="geometry">
            <mxPoint x="560" y="440" as="sourcePoint" />
            <mxPoint x="270" y="640" as="targetPoint" />
          </mxGeometry>
        </mxCell>
        <mxCell id="aSpZ6OvO1H7LhaN8nrK5-121" value="" style="endArrow=classic;html=1;rounded=0;exitX=1;exitY=0.5;exitDx=0;exitDy=0;entryX=0;entryY=0.5;entryDx=0;entryDy=0;" parent="1" source="aSpZ6OvO1H7LhaN8nrK5-51" target="aSpZ6OvO1H7LhaN8nrK5-62" edge="1">
          <mxGeometry width="50" height="50" relative="1" as="geometry">
            <mxPoint x="560" y="940" as="sourcePoint" />
            <mxPoint x="610" y="890" as="targetPoint" />
          </mxGeometry>
        </mxCell>
        <mxCell id="aSpZ6OvO1H7LhaN8nrK5-122" value="" style="endArrow=classic;html=1;rounded=0;exitX=1;exitY=0.5;exitDx=0;exitDy=0;entryX=0;entryY=0.5;entryDx=0;entryDy=0;" parent="1" source="aSpZ6OvO1H7LhaN8nrK5-32" target="aSpZ6OvO1H7LhaN8nrK5-61" edge="1">
          <mxGeometry width="50" height="50" relative="1" as="geometry">
            <mxPoint x="560" y="720" as="sourcePoint" />
            <mxPoint x="610" y="670" as="targetPoint" />
          </mxGeometry>
        </mxCell>
        <mxCell id="aSpZ6OvO1H7LhaN8nrK5-123" value="" style="endArrow=classic;html=1;rounded=0;exitX=1;exitY=0.5;exitDx=0;exitDy=0;entryX=0;entryY=0.5;entryDx=0;entryDy=0;fillColor=#f8cecc;strokeColor=#b85450;" parent="1" source="aSpZ6OvO1H7LhaN8nrK5-42" target="aSpZ6OvO1H7LhaN8nrK5-72" edge="1">
          <mxGeometry width="50" height="50" relative="1" as="geometry">
            <mxPoint x="560" y="720" as="sourcePoint" />
            <mxPoint x="610" y="670" as="targetPoint" />
          </mxGeometry>
        </mxCell>
        <mxCell id="aSpZ6OvO1H7LhaN8nrK5-124" value="" style="endArrow=classic;html=1;rounded=0;exitX=1;exitY=0.5;exitDx=0;exitDy=0;entryX=0;entryY=0.5;entryDx=0;entryDy=0;" parent="1" source="aSpZ6OvO1H7LhaN8nrK5-32" target="aSpZ6OvO1H7LhaN8nrK5-82" edge="1">
          <mxGeometry width="50" height="50" relative="1" as="geometry">
            <mxPoint x="560" y="580" as="sourcePoint" />
            <mxPoint x="610" y="530" as="targetPoint" />
          </mxGeometry>
        </mxCell>
        <mxCell id="aSpZ6OvO1H7LhaN8nrK5-125" value="" style="endArrow=classic;html=1;rounded=0;exitX=1;exitY=0.5;exitDx=0;exitDy=0;" parent="1" source="aSpZ6OvO1H7LhaN8nrK5-82" target="aSpZ6OvO1H7LhaN8nrK5-92" edge="1">
          <mxGeometry width="50" height="50" relative="1" as="geometry">
            <mxPoint x="640" y="580" as="sourcePoint" />
            <mxPoint x="690" y="530" as="targetPoint" />
          </mxGeometry>
        </mxCell>
        <mxCell id="aSpZ6OvO1H7LhaN8nrK5-126" value="" style="endArrow=classic;html=1;rounded=0;exitX=1;exitY=0.5;exitDx=0;exitDy=0;entryX=0;entryY=0.5;entryDx=0;entryDy=0;" parent="1" source="aSpZ6OvO1H7LhaN8nrK5-82" target="aSpZ6OvO1H7LhaN8nrK5-102" edge="1">
          <mxGeometry width="50" height="50" relative="1" as="geometry">
            <mxPoint x="640" y="580" as="sourcePoint" />
            <mxPoint x="690" y="530" as="targetPoint" />
          </mxGeometry>
        </mxCell>
        <mxCell id="aSpZ6OvO1H7LhaN8nrK5-129" value="" style="endArrow=classic;html=1;rounded=0;exitX=1;exitY=0.5;exitDx=0;exitDy=0;entryX=0;entryY=0.5;entryDx=0;entryDy=0;" parent="1" source="aSpZ6OvO1H7LhaN8nrK5-62" target="aSpZ6OvO1H7LhaN8nrK5-92" edge="1">
          <mxGeometry width="50" height="50" relative="1" as="geometry">
            <mxPoint x="490" y="770" as="sourcePoint" />
            <mxPoint x="540" y="720" as="targetPoint" />
          </mxGeometry>
        </mxCell>
        <mxCell id="aSpZ6OvO1H7LhaN8nrK5-130" value="" style="endArrow=classic;html=1;rounded=0;exitX=1;exitY=0.5;exitDx=0;exitDy=0;entryX=0;entryY=0.5;entryDx=0;entryDy=0;" parent="1" source="aSpZ6OvO1H7LhaN8nrK5-62" target="aSpZ6OvO1H7LhaN8nrK5-102" edge="1">
          <mxGeometry width="50" height="50" relative="1" as="geometry">
            <mxPoint x="490" y="770" as="sourcePoint" />
            <mxPoint x="540" y="720" as="targetPoint" />
          </mxGeometry>
        </mxCell>
        <mxCell id="aSpZ6OvO1H7LhaN8nrK5-127" value="" style="endArrow=classic;html=1;rounded=0;exitX=1;exitY=0.5;exitDx=0;exitDy=0;entryX=0;entryY=0.5;entryDx=0;entryDy=0;fillColor=#f8cecc;strokeColor=#b85450;" parent="1" source="aSpZ6OvO1H7LhaN8nrK5-72" target="aSpZ6OvO1H7LhaN8nrK5-91" edge="1">
          <mxGeometry width="50" height="50" relative="1" as="geometry">
            <mxPoint x="640" y="580" as="sourcePoint" />
            <mxPoint x="690" y="530" as="targetPoint" />
          </mxGeometry>
        </mxCell>
        <mxCell id="aSpZ6OvO1H7LhaN8nrK5-128" value="" style="endArrow=classic;html=1;rounded=0;exitX=1;exitY=0.5;exitDx=0;exitDy=0;entryX=0;entryY=0.5;entryDx=0;entryDy=0;fillColor=#f8cecc;strokeColor=#b85450;" parent="1" source="aSpZ6OvO1H7LhaN8nrK5-72" target="aSpZ6OvO1H7LhaN8nrK5-102" edge="1">
          <mxGeometry width="50" height="50" relative="1" as="geometry">
            <mxPoint x="640" y="580" as="sourcePoint" />
            <mxPoint x="690" y="530" as="targetPoint" />
          </mxGeometry>
        </mxCell>
        <mxCell id="aSpZ6OvO1H7LhaN8nrK5-132" value="" style="endArrow=classic;html=1;rounded=0;exitX=1;exitY=0.5;exitDx=0;exitDy=0;entryX=0;entryY=0.5;entryDx=0;entryDy=0;" parent="1" source="aSpZ6OvO1H7LhaN8nrK5-11" target="aSpZ6OvO1H7LhaN8nrK5-82" edge="1">
          <mxGeometry width="50" height="50" relative="1" as="geometry">
            <mxPoint x="640" y="500" as="sourcePoint" />
            <mxPoint x="690" y="450" as="targetPoint" />
          </mxGeometry>
        </mxCell>
        <mxCell id="aSpZ6OvO1H7LhaN8nrK5-133" value="" style="endArrow=classic;html=1;rounded=0;exitX=1;exitY=0.5;exitDx=0;exitDy=0;entryX=0;entryY=0.5;entryDx=0;entryDy=0;" parent="1" source="aSpZ6OvO1H7LhaN8nrK5-21" target="aSpZ6OvO1H7LhaN8nrK5-82" edge="1">
          <mxGeometry width="50" height="50" relative="1" as="geometry">
            <mxPoint x="640" y="500" as="sourcePoint" />
            <mxPoint x="690" y="450" as="targetPoint" />
          </mxGeometry>
        </mxCell>
        <mxCell id="aSpZ6OvO1H7LhaN8nrK5-134" value="" style="endArrow=classic;html=1;rounded=0;exitX=1;exitY=0.5;exitDx=0;exitDy=0;entryX=0;entryY=0.5;entryDx=0;entryDy=0;" parent="1" source="aSpZ6OvO1H7LhaN8nrK5-11" target="aSpZ6OvO1H7LhaN8nrK5-71" edge="1">
          <mxGeometry width="50" height="50" relative="1" as="geometry">
            <mxPoint x="640" y="500" as="sourcePoint" />
            <mxPoint x="690" y="450" as="targetPoint" />
          </mxGeometry>
        </mxCell>
        <mxCell id="aSpZ6OvO1H7LhaN8nrK5-135" value="" style="endArrow=classic;html=1;rounded=0;exitX=1;exitY=0.5;exitDx=0;exitDy=0;entryX=0;entryY=0.5;entryDx=0;entryDy=0;" parent="1" source="aSpZ6OvO1H7LhaN8nrK5-22" target="aSpZ6OvO1H7LhaN8nrK5-71" edge="1">
          <mxGeometry width="50" height="50" relative="1" as="geometry">
            <mxPoint x="640" y="500" as="sourcePoint" />
            <mxPoint x="690" y="450" as="targetPoint" />
          </mxGeometry>
        </mxCell>
      </root>
    </mxGraphModel>
  </diagram>
</mxfile>
